HIERARCHY
ROOT SpineBase
{
  OFFSET 0.000000 0.000000 0.000000
  CHANNELS 6 Xposition Yposition Zposition Zrotation Xrotation Yrotation
  JOINT SpineMid
  {
    OFFSET -0.000000 34.154639 0.000000
    CHANNELS 3 Zrotation Xrotation Yrotation
    JOINT SpineShoulder
    {
      OFFSET 0.033212 25.294980 -0.903195
      CHANNELS 3 Zrotation Xrotation Yrotation
      JOINT Neck
      {
        OFFSET 0.063746 8.353841 -0.647300
        CHANNELS 3 Zrotation Xrotation Yrotation
        JOINT Head
        {
          OFFSET 2.156398 10.035021 5.424263
          CHANNELS 3 Zrotation Xrotation Yrotation
          End Site
          {
            OFFSET 0 0 0
          }
        }
      }
      JOINT ShoulderLeft
      {
        OFFSET -7.464139 -5.344244 -6.536259
        CHANNELS 3 Zrotation Xrotation Yrotation
        JOINT ElbowLeft
        {
          OFFSET -18.545902 -26.920997 16.884481
          CHANNELS 3 Zrotation Xrotation Yrotation
          JOINT WristLeft
          {
            OFFSET -3.571653 -31.938297 5.766395
            CHANNELS 3 Zrotation Xrotation Yrotation
            JOINT HandLeft
            {
              OFFSET -1.192707 -3.861718 2.234883
              CHANNELS 3 Zrotation Xrotation Yrotation
              JOINT HandTipLeft
              {
                OFFSET 0.869210 -1.858639 -3.194560
                CHANNELS 3 Zrotation Xrotation Yrotation
                End Site
                {
                  OFFSET 0 0 0
                }
              }
              JOINT ThumbLeft
              {
                OFFSET 0.309872 2.149702 -1.281213
                CHANNELS 3 Zrotation Xrotation Yrotation
                End Site
                {
                  OFFSET 0 0 0
                }
              }
            }
          }
        }
      }
      JOINT ShoulderRight
      {
        OFFSET 9.569545 -6.711546 -13.248545
        CHANNELS 3 Zrotation Xrotation Yrotation
        JOINT ElbowRight
        {
          OFFSET 4.334799 -32.290317 -0.384761
          CHANNELS 3 Zrotation Xrotation Yrotation
          JOINT WristRight
          {
            OFFSET 4.732669 -21.333421 3.367100
            CHANNELS 3 Zrotation Xrotation Yrotation
            JOINT HandRight
            {
              OFFSET -1.472459 -2.703331 0.431229
              CHANNELS 3 Zrotation Xrotation Yrotation
              JOINT HandTipRight
              {
                OFFSET 0.233317 -4.775140 0.812025
                CHANNELS 3 Zrotation Xrotation Yrotation
                End Site
                {
                  OFFSET 0 0 0
                }
              }
              JOINT ThumbRight
              {
                OFFSET -3.079199 3.111959 -1.209963
                CHANNELS 3 Zrotation Xrotation Yrotation
                End Site
                {
                  OFFSET 0 0 0
                }
              }
            }
          }
        }
      }
    }
  }
  JOINT HipLeft
  {
    OFFSET -5.861834 0.974224 -2.042122
    CHANNELS 3 Zrotation Xrotation Yrotation
    JOINT KneeLeft
    {
      OFFSET -5.089909 -35.378032 4.337099
      CHANNELS 3 Zrotation Xrotation Yrotation
      JOINT AnkleLeft
      {
        OFFSET 1.413514 -35.679305 1.822265
        CHANNELS 3 Zrotation Xrotation Yrotation
        JOINT FootLeft
        {
          OFFSET -2.430037 -1.969181 -11.346795
          CHANNELS 3 Zrotation Xrotation Yrotation
          End Site
          {
            OFFSET 0 0 0
          }
        }
      }
    }
  }
  JOINT HipRight
  {
    OFFSET 6.436090 1.747748 -5.214026
    CHANNELS 3 Zrotation Xrotation Yrotation
    JOINT KneeRight
    {
      OFFSET -2.331872 -34.568496 -3.146652
      CHANNELS 3 Zrotation Xrotation Yrotation
      JOINT AnkleRight
      {
        OFFSET -2.057927 -32.041632 -1.285878
        CHANNELS 3 Zrotation Xrotation Yrotation
        JOINT FootRight
        {
          OFFSET -5.320022 -4.725123 3.952923
          CHANNELS 3 Zrotation Xrotation Yrotation
          End Site
          {
            OFFSET 0 0 0
          }
        }
      }
    }
  }
}
MOTION
Frames: 10
Frame Time: 0.033333
-21.411528 76.407842 248.788136 0.170402 0.543490 21.218328 -0.355560 -0.444968 -21.220517 -0.000000 0.000000 0.000000 5.179133 -7.237996 -0.958237 0.000000 0.000000 0.000000 88.489456 41.580128 -25.384053 -72.955919 -35.891323 -29.820801 -4.292218 15.927379 -3.154530 -45.082840 -63.812779 -38.928680 0.000000 0.000000 0.000000 0.000000 0.000000 0.000000 4.217795 2.375614 0.180251 -8.875989 -1.975146 -1.194006 21.171465 -10.058852 10.889645 -5.943161 23.668894 -8.075160 0.000000 0.000000 0.000000 0.000000 0.000000 0.000000 0.583667 1.519470 -21.522324 0.661513 -1.453318 0.385961 2.958329 -25.001327 -32.607311 0.000000 0.000000 0.000000 0.228489 -1.626751 -21.238416 -0.424739 2.098256 -0.077863 -5.088736 -4.473002 -0.244373 0.000000 0.000000 0.000000
-21.409052 76.339193 248.842767 0.108118 0.628470 21.040816 -0.326562 -0.547744 -21.042970 -0.000000 0.000000 0.000000 4.932776 -7.241868 -0.833586 0.000000 0.000000 0.000000 87.111686 41.457526 -25.343470 -72.335696 -36.636597 -29.332478 -3.986393 17.073184 -3.625935 -44.819767 -64.618205 -38.756703 0.000000 0.000000 0.000000 0.000000 0.000000 0.000000 3.897451 2.526709 0.205814 -8.557658 -1.965435 -1.187262 19.430463 -10.335647 10.412070 -4.972299 22.865343 -7.773072 0.000000 0.000000 0.000000 0.000000 0.000000 0.000000 0.605932 1.312073 -21.322981 0.485023 -1.084172 0.362813 1.293957 -31.213616 -44.694485 0.000000 0.000000 0.000000 0.848525 -1.518472 -21.120771 -1.523399 1.327929 0.055005 -3.756074 -4.138952 0.361943 0.000000 0.000000 0.000000
-21.408275 76.330811 248.874243 0.037053 0.719849 21.131459 -0.074508 0.143184 -21.136483 0.084136 -0.826537 0.004695 4.453212 -6.920936 -0.677673 0.000000 0.000000 0.000000 85.259674 41.278440 -25.106957 -70.846528 -37.378996 -28.324065 -3.768783 18.026826 -4.032261 -44.646426 -65.148449 -37.098994 0.000000 0.000000 0.000000 0.000000 0.000000 0.000000 3.567321 2.718403 0.236752 -8.177324 -1.849045 -1.140361 19.842920 -9.818893 9.994917 -7.554585 22.093429 -7.071568 0.000000 0.000000 0.000000 0.000000 0.000000 0.000000 0.657111 1.120184 -21.395684 0.333280 -0.807338 0.344993 1.695940 -28.539387 -48.036500 0.000000 0.000000 0.000000 1.837387 -1.285187 -21.311369 -3.221656 -0.090865 0.241729 -1.277456 -2.474158 0.647625 0.000000 0.000000 0.000000
-21.346348 76.294059 248.928787 0.028556 0.747929 21.078581 -0.105708 0.151904 -21.085227 0.124811 -0.851637 0.006501 3.873794 -6.202176 -0.571578 0.000000 0.000000 0.000000 84.030652 41.180932 -25.278414 -69.622002 -38.089704 -27.460613 -3.135466 18.344492 -3.943579 -46.600223 -65.398834 -37.545847 0.000000 0.000000 0.000000 0.000000 0.000000 0.000000 3.352203 2.981352 0.271953 -7.803196 -2.036635 -1.149699 21.265072 -8.174722 9.243284 -10.848254 20.179200 -6.148552 0.000000 0.000000 0.000000 0.000000 0.000000 0.000000 0.606576 1.052006 -21.337756 0.313294 -0.576792 0.343498 3.713888 -19.930630 -46.092600 0.000000 0.000000 0.000000 1.613096 -1.349422 -21.235216 -2.967048 0.214396 0.207669 -1.323890 -3.169248 1.202281 0.000000 0.000000 0.000000
-21.202792 76.300772 248.975595 0.126449 0.700587 21.391939 -0.373291 -0.606193 -21.394687 -0.000000 0.000000 0.000000 3.012547 -4.997995 -0.435289 0.000000 0.000000 0.000000 88.791847 41.844202 -30.792104 -68.836698 -40.656924 -26.137785 -2.841870 17.948368 -3.423223 -60.046854 -66.639286 -48.127669 0.000000 0.000000 0.000000 0.000000 0.000000 0.000000 3.298442 3.285861 0.305994 -7.630645 -2.302020 -1.187302 23.791733 -6.795877 8.982403 -10.596087 18.923076 -5.977692 0.000000 0.000000 0.000000 0.000000 0.000000 0.000000 0.238977 1.254876 -21.693541 0.616562 -0.481938 0.392129 5.236806 -13.453831 -49.405725 0.000000 0.000000 0.000000 1.314829 -1.204264 -21.535059 -2.727632 0.240172 0.185401 -1.080133 -3.244739 1.482441 0.000000 0.000000 0.000000
-21.002020 76.321074 249.035515 0.268277 0.657920 21.880482 -0.494156 -0.510533 -21.884224 -0.000000 0.000000 0.000000 2.396704 -3.988165 -0.363347 0.000000 0.000000 0.000000 87.187672 41.715658 -29.941129 -68.335908 -41.121426 -25.743025 -2.202253 21.042425 -4.805645 -63.094448 -68.775133 -51.987586 0.000000 0.000000 0.000000 0.000000 0.000000 0.000000 3.370320 3.652342 0.341334 -7.750710 -2.442606 -1.228566 24.334690 -6.652010 8.898088 -12.880466 17.984446 -5.718632 0.000000 0.000000 0.000000 0.000000 0.000000 0.000000 -0.774984 1.417026 -22.244545 2.237664 0.297380 0.534461 5.836391 -8.646036 -51.102039 0.000000 0.000000 0.000000 0.954466 -0.908419 -22.013757 -2.467545 -0.027204 0.172998 -0.371736 -2.416805 1.328584 0.000000 0.000000 0.000000
-20.885310 76.267275 249.158183 0.272887 0.558737 22.158993 -0.463486 -0.414532 -22.162000 -0.000000 0.000000 0.000000 1.951539 -3.199239 -0.318794 0.000000 0.000000 0.000000 79.687923 40.658838 -24.034247 -66.236237 -39.207789 -25.210646 -2.623412 19.402723 -4.237156 -50.833970 -67.422880 -43.767005 0.000000 0.000000 0.000000 0.000000 0.000000 0.000000 3.544664 4.151898 0.385068 -7.816424 -2.616334 -1.244699 27.037023 -6.491497 9.429716 -13.304475 16.981430 -5.986076 0.000000 0.000000 0.000000 0.000000 0.000000 0.000000 0.284187 1.861141 -22.536513 0.395877 -0.970721 0.442703 7.526341 -6.202945 -52.674492 0.000000 0.000000 0.000000 -0.463486 -0.414532 -22.162000 -0.000000 0.000000 0.000000 -2.945046 -3.217903 1.023267 0.000000 0.000000 0.000000
-20.828975 76.180914 249.326341 0.204509 0.370852 22.368612 -0.330256 -0.265115 -22.370038 -0.000000 0.000000 0.000000 1.560034 -2.308507 -0.320155 0.000000 0.000000 0.000000 65.421873 36.955879 -13.769539 -60.524757 -35.428006 -22.999198 -2.453389 15.304294 -2.749229 -36.295130 -62.892552 -28.363459 0.000000 0.000000 0.000000 0.000000 0.000000 0.000000 3.674092 4.054663 0.368903 -8.068315 -1.941534 -1.101566 27.825488 -7.780389 10.376246 -14.608086 18.863555 -6.487415 0.000000 0.000000 0.000000 0.000000 0.000000 0.000000 0.923203 2.276190 -22.776644 -0.191403 -1.596561 0.427896 6.868954 -9.367697 -52.022566 0.000000 0.000000 0.000000 -0.330256 -0.265115 -22.370038 -0.000000 0.000000 0.000000 -1.190614 -1.902921 1.098697 0.000000 0.000000 0.000000
-20.827339 76.124206 249.506177 0.061058 0.220794 22.645584 -0.141363 -0.180263 -22.645924 -0.000000 0.000000 0.000000 1.350526 -1.756050 -0.335586 0.000000 0.000000 0.000000 46.085406 27.347946 -0.891573 -48.068110 -27.221750 -17.889233 0.857302 15.316538 -2.281473 -31.822630 -61.595871 -21.254842 0.000000 0.000000 0.000000 0.000000 0.000000 0.000000 4.067279 4.122167 0.356842 -8.729726 -1.661981 -1.095246 27.532492 -8.503243 10.625857 -17.059403 19.148702 -6.372325 0.000000 0.000000 0.000000 0.000000 0.000000 0.000000 2.890510 2.815958 -23.082690 -3.281473 -3.676034 0.126972 7.177502 -14.506259 -55.420438 0.000000 0.000000 0.000000 -0.141363 -0.180263 -22.645924 -0.000000 0.000000 0.000000 -2.244509 -2.049184 0.375437 0.000000 0.000000 0.000000
-20.874521 76.100180 249.681464 -0.137439 0.108340 23.207325 0.083626 -0.153732 -23.207082 -0.000000 0.000000 0.000000 1.363734 -1.442907 -0.413799 0.000000 0.000000 0.000000 27.246109 12.369831 7.639492 -32.702965 -16.084307 -12.591907 5.270735 17.657277 -2.491460 -28.094052 -60.412534 -12.832121 0.000000 0.000000 0.000000 0.000000 0.000000 0.000000 4.586127 4.401308 0.358049 -9.456298 -1.791129 -1.186354 26.406203 -8.841523 10.393958 -20.605822 16.072621 -6.002134 0.000000 0.000000 0.000000 0.000000 0.000000 0.000000 4.622890 3.158571 -23.674214 -5.749611 -5.206434 -0.189616 7.449254 -17.243971 -53.513295 0.000000 0.000000 0.000000 1.211449 0.474218 -23.350935 -0.786673 -1.023472 0.133671 -2.791433 -2.048222 -0.076051 0.000000 0.000000 0.000000
